<?xml version="1.0" encoding="utf-8"?>
<!-- Generator: Adobe Illustrator 16.0.0, SVG Export Plug-In . SVG Version: 6.00 Build 0)  -->
<!DOCTYPE svg PUBLIC "-//W3C//DTD SVG 1.1//EN" "http://www.w3.org/Graphics/SVG/1.1/DTD/svg11.dtd">
<svg version="1.1" id="Layer_1" xmlns="http://www.w3.org/2000/svg" xmlns:xlink="http://www.w3.org/1999/xlink" x="0px" y="0px"
	 width="489.312px" height="184.655px" viewBox="0 0 489.312 184.655" enable-background="new 0 0 489.312 184.655"
	 xml:space="preserve">
<g>
	<g>
		<path fill="#EDEDF7" stroke="#282763" stroke-width="5.8796" stroke-linecap="round" stroke-miterlimit="10" d="M36.085,54.986
			c0,0-27.514,46.914-10.683,80.904c16.176,32.681,60.714,36.172,84.912,23.48s32.468-28.828,34.596-47.91
			c3.051-27.368-20.627-58.229-36-64.046"/>
		<path fill="#F6E0D4" stroke="#282763" stroke-width="5.8796" stroke-linecap="round" stroke-miterlimit="10" d="M40.328,89.252
			c0,0-5.226,16.583-2.145,25.319"/>
		
			<path fill="#282763" stroke="#282763" stroke-width="5.2149" stroke-linecap="round" stroke-linejoin="round" stroke-miterlimit="10" d="
			M47.959,158.593c0-32.537,35.798-28.083,35.798-28.083s11.526,3.944,13.178,14.445l3.667,18.324c0,0-17.126,4.864-29.219,2.416
			C59.291,163.243,47.959,158.593,47.959,158.593z"/>
		<path fill="#F6E0D4" stroke="#282763" stroke-width="5.8796" stroke-linecap="round" stroke-miterlimit="10" d="M90.598,129.354
			c-2.396,15.078-16.56,25.356-31.634,22.964c-15.078-2.396-25.36-16.56-22.964-31.634c2.396-15.081,16.56-25.36,31.638-22.964
			C82.715,100.113,92.994,114.277,90.598,129.354z"/>
		<path fill="none" stroke="#282763" stroke-width="3.4093" stroke-linecap="round" stroke-miterlimit="10" d="M62.27,139.858
			c0,0,7.77,4.184,11.821-3.65"/>
		<path fill="none" stroke="#282763" stroke-width="3.4093" stroke-linecap="round" stroke-miterlimit="10" d="M53.91,131.188
			c0,0,2.502,2.984,6.003,1.8c3.551-1.204,3.538-4.03,3.538-4.03"/>
		<path fill="none" stroke="#282763" stroke-width="3.4093" stroke-linecap="round" stroke-miterlimit="10" d="M68.782,126.132
			c0,0,2.495,2.981,5.997,1.8c3.554-1.201,3.538-4.03,3.538-4.03"/>
		
			<path fill="#282763" stroke="#282763" stroke-width="5.2149" stroke-linecap="round" stroke-linejoin="round" stroke-miterlimit="10" d="
			M56.114,98.021c-8.697,0.814-10.669,16.315,4.574,17.05c7.313,0.352,17.844-3.27,17.288-18.182c0,0-5.818,4.124-11.431,2.985
			C61.624,98.876,62.259,97.449,56.114,98.021z"/>
		<g>
			<path fill="#F6E0D4" stroke="#282763" stroke-width="5.8796" stroke-linecap="round" stroke-miterlimit="10" d="M83.813,165.751
				c-10.173-3.997-10.081-14.31,2.389-17.566c2.932-0.761,5.745-1.585,8.485-2.902"/>
			<path fill="#F6E0D4" stroke="#282763" stroke-width="5.8796" stroke-linecap="round" stroke-miterlimit="10" d="M90.796,164.977
				c-2.284,0.364-4.613,0.622-6.983,0.774"/>
			<path fill="#EDEDF7" stroke="#282763" stroke-width="5.8796" stroke-linecap="round" stroke-miterlimit="10" d="M104.1,97.635
				c0,0,13.211,18.452,4.566,33.514c-4.537,7.909-9.134,11.802-13.979,14.134c-2.74,1.317-5.553,2.142-8.485,2.902
				c-12.47,3.257-12.562,13.569-2.389,17.566c2.558,0.943,4.699,0.831,6.983,0.467c6.801-1.082,13.135-4.335,18.476-7.139
				c24.201-12.691,32.468-28.827,34.596-47.909c3.051-27.368-20.627-58.226-35.996-64.046"/>
		</g>
		
			<circle fill="#F6E0D4" stroke="#282763" stroke-width="4.4419" stroke-linecap="round" stroke-miterlimit="10" cx="72.897" cy="54.985" r="36.805"/>
		<path fill="#282763" d="M109.693,54.176c-0.007-0.274-0.017-0.546-0.03-0.821c-0.119-2.624-0.513-5.277-1.221-7.919
			c-5.275-19.631-25.462-31.267-45.094-25.995c-1.489,0.4-2.922,0.896-4.312,1.463l-0.543-2.287l-2.485,1.191
			C39.084,27.913,30.334,46.965,35.208,65.11c1.102,4.109,3.611,8.941,5.424,11.83l0.86,1.371l1.572-0.4
			c2.929-0.748,7.886-2.89,14.846-8.844c7.145-6.105,10.326-15.566,11.643-21.104c3.61,3.307,7.622,5.705,11.967,7.158
			c14.21,4.742,25.631,2.108,28.795,1.185L109.693,54.176z"/>
		<path fill="none" stroke="#282763" stroke-width="3.1728" stroke-linecap="round" stroke-miterlimit="10" d="M75.633,81.475
			c0,0,7.916,3.833,11.612-4.144"/>
		<path fill="none" stroke="#282763" stroke-width="3.1728" stroke-linecap="round" stroke-miterlimit="10" d="M63.474,74.869
			c0,0,3.223,3.528,7.456,1.89c4.292-1.661,4.123-5.129,4.123-5.129"/>
		<path fill="none" stroke="#282763" stroke-width="3.1728" stroke-linecap="round" stroke-miterlimit="10" d="M81.44,67.876
			c0,0,3.227,3.528,7.456,1.891c4.295-1.665,4.124-5.13,4.124-5.13"/>
	</g>
	<g>
		<g>
			<path fill="#282763" d="M212.164,91.599c-0.334,0.337-0.705,0.499-1.119,0.499h-10.1c-0.721,0-1.284-0.089-1.694-0.268
				c-0.417-0.179-0.877-0.5-1.39-0.964c-0.103-0.102-0.437-0.446-0.999-1.042c-0.569-0.586-1.457-1.118-2.661-1.582
				c-1.211-0.46-2.611-0.688-4.203-0.688c-2.211,0-4.024,0.291-5.441,0.887c-1.41,0.586-2.118,1.605-2.118,3.042
				c0,1.032,0.437,1.84,1.311,2.429c0.874,0.593,2.224,1.119,4.05,1.582c1.82,0.46,4.998,1.158,9.521,2.082
				c5.808,1.185,10.074,3.034,12.797,5.55c2.727,2.521,4.09,6.118,4.09,10.798c0,3.393-1.016,6.361-3.045,8.906
				c-2.032,2.545-4.858,4.5-8.485,5.857c-3.624,1.363-7.724,2.045-12.297,2.045c-4.421,0-8.432-0.771-12.026-2.31
				c-3.601-1.546-6.43-3.548-8.485-6.021c-2.058-2.462-3.137-5.01-3.236-7.631c0-0.46,0.166-0.857,0.5-1.195
				c0.334-0.334,0.705-0.502,1.119-0.502h10.104c1.125,0,2.105,0.363,2.926,1.082c0.155,0.155,0.566,0.602,1.237,1.35
				c0.668,0.748,1.681,1.413,3.045,2.002c1.36,0.593,2.968,0.887,4.818,0.887c6.374,0,9.561-1.359,9.561-4.083
				c0-0.874-0.45-1.605-1.347-2.201c-0.903-0.592-2.178-1.092-3.819-1.502c-1.645-0.411-4.27-1.003-7.863-1.774l-3.472-0.694
				c-5.245-1.129-9.097-3.021-11.566-5.666c-2.469-2.647-3.7-6.182-3.7-10.603c0-2.982,0.9-5.746,2.697-8.291
				s4.358-4.573,7.671-6.092c3.319-1.516,7.131-2.271,11.454-2.271c4.163,0,7.965,0.781,11.411,2.35
				c3.442,1.568,6.155,3.534,8.134,5.897c1.979,2.366,3.018,4.676,3.124,6.939C212.667,90.866,212.501,91.264,212.164,91.599z"/>
			<path fill="#282763" d="M240.042,129.345c-0.417,0.41-0.9,0.615-1.47,0.615h-9.716c-0.562,0-1.052-0.205-1.462-0.615
				c-0.411-0.41-0.616-0.9-0.616-1.466V91.945c0-0.565,0.205-1.049,0.616-1.466c0.41-0.41,0.9-0.615,1.462-0.615h9.716
				c0.569,0,1.053,0.205,1.47,0.615c0.41,0.417,0.615,0.9,0.615,1.466v35.934C240.658,128.444,240.453,128.935,240.042,129.345z"/>
			<path fill="#282763" d="M276.127,118.011h6.169c0.562,0,1.052,0.205,1.463,0.615c0.41,0.414,0.615,0.903,0.615,1.466v7.787
				c0,0.565-0.205,1.056-0.615,1.466c-0.411,0.41-0.9,0.615-1.463,0.615h-7.327c-4.884,0-8.776-1.363-11.682-4.083
				c-2.906-2.728-4.355-6.427-4.355-11.106v-12.953h-5.705c-0.569,0-1.056-0.205-1.47-0.615c-0.41-0.41-0.615-0.9-0.615-1.467v-7.79
				c0-0.565,0.205-1.049,0.615-1.466c0.414-0.41,0.9-0.615,1.47-0.615h5.705V77.295c0-0.562,0.205-1.052,0.616-1.463
				c0.41-0.41,0.9-0.615,1.462-0.615h9.717c0.565,0,1.052,0.205,1.469,0.615c0.41,0.411,0.615,0.9,0.615,1.463v12.569h8.71
				c0.566,0,1.056,0.205,1.466,0.615c0.414,0.417,0.619,0.9,0.619,1.466v7.79c0,0.566-0.205,1.057-0.619,1.467
				c-0.41,0.41-0.9,0.615-1.466,0.615h-8.71v12.493C272.812,116.776,273.914,118.011,276.127,118.011z"/>
			<path fill="#282763" d="M318.458,118.011h6.168c0.566,0,1.056,0.205,1.466,0.615c0.41,0.414,0.615,0.903,0.615,1.466v7.787
				c0,0.565-0.205,1.056-0.615,1.466c-0.411,0.41-0.9,0.615-1.466,0.615h-7.324c-4.888,0-8.783-1.363-11.682-4.083
				c-2.905-2.728-4.361-6.427-4.361-11.106v-12.953h-5.702c-0.566,0-1.056-0.205-1.466-0.615c-0.41-0.41-0.615-0.9-0.615-1.467
				v-7.79c0-0.565,0.205-1.049,0.615-1.466c0.411-0.41,0.9-0.615,1.466-0.615h5.702V77.295c0-0.562,0.205-1.052,0.622-1.463
				c0.41-0.41,0.896-0.615,1.463-0.615h9.716c0.563,0,1.053,0.205,1.463,0.615c0.414,0.411,0.619,0.9,0.619,1.463v12.569h8.713
				c0.562,0,1.052,0.205,1.463,0.615c0.41,0.417,0.615,0.9,0.615,1.466v7.79c0,0.566-0.205,1.057-0.615,1.467
				c-0.411,0.41-0.9,0.615-1.463,0.615h-8.713v12.493C315.142,116.776,316.244,118.011,318.458,118.011z"/>
			<path fill="#282763" d="M353.157,118.934c1.39,0.927,3.005,1.39,4.858,1.39c1.44,0,2.621-0.155,3.548-0.463
				s1.721-0.741,2.389-1.311c0.566-0.463,0.977-0.758,1.238-0.887c0.255-0.129,0.688-0.192,1.311-0.192h10.021
				c0.516,0,0.927,0.152,1.234,0.46s0.46,0.719,0.46,1.234c0,1.029-0.768,2.482-2.31,4.358c-1.542,1.877-3.832,3.548-6.864,5.011
				c-3.031,1.466-6.711,2.197-11.027,2.197c-6.632,0-11.758-1.833-15.382-5.514c-3.624-3.673-5.437-8.776-5.437-15.306
				c0-4.061,0.811-7.661,2.432-10.792c1.615-3.137,3.991-5.593,7.128-7.366c3.137-1.774,6.89-2.661,11.258-2.661
				c4.782,0,8.727,1.016,11.838,3.048c3.107,2.032,5.384,4.649,6.821,7.86c1.442,3.217,2.161,6.568,2.161,10.063v2.164
				c0,0.563-0.205,1.053-0.619,1.463c-0.411,0.414-0.894,0.619-1.463,0.619h-25.674
				C351.079,116.465,351.767,118.011,353.157,118.934z M364.958,105.749c-0.212-1.747-0.917-3.227-2.125-4.435
				c-1.208-1.204-2.813-1.813-4.819-1.813c-2.005,0-3.61,0.609-4.818,1.813c-1.208,1.208-1.913,2.688-2.118,4.435H364.958z"/>
			<path fill="#282763" d="M421.088,90.479c0.414,0.417,0.619,0.9,0.619,1.466v7.79c0,0.566-0.205,1.057-0.619,1.467
				c-0.411,0.41-0.897,0.615-1.463,0.615h-7.019c-2.31,0-4.071,0.603-5.282,1.811c-1.205,1.211-1.811,2.969-1.811,5.281v18.97
				c0,0.565-0.205,1.056-0.619,1.466c-0.411,0.41-0.9,0.615-1.463,0.615h-9.716c-0.566,0-1.056-0.205-1.466-0.615
				c-0.414-0.41-0.619-0.9-0.619-1.466V91.945c0-0.565,0.205-1.049,0.619-1.466c0.41-0.41,0.9-0.615,1.466-0.615h8.945
				c0.566,0,1.052,0.205,1.466,0.615c0.411,0.417,0.616,0.9,0.616,1.466v1.774c2.671-2.568,6.089-3.855,10.256-3.855h4.626
				C420.191,89.864,420.678,90.069,421.088,90.479z"/>
			<path fill="#282763" d="M434.584,109.948c-2.108-2.184-3.161-4.993-3.161-8.438c0-2.316,0.754-4.411,2.273-6.288
				c1.513-1.876,3.65-3.365,6.4-4.471c2.75-1.102,5.874-1.658,9.369-1.658c3.441,0,6.565,0.526,9.365,1.582
				c2.807,1.056,5.027,2.406,6.672,4.047c1.648,1.648,2.545,3.366,2.7,5.17c0.05,0.562-0.146,1.053-0.576,1.463
				c-0.44,0.413-0.94,0.619-1.509,0.619h-9.173c-0.569,0-1.234-0.285-2.005-0.852c-0.668-0.513-1.39-0.91-2.158-1.194
				c-0.774-0.281-1.876-0.427-3.316-0.427c-1.231,0-2.237,0.186-3.005,0.543c-0.774,0.36-1.159,0.9-1.159,1.621
				c0,0.615,0.139,1.076,0.424,1.384c0.285,0.311,0.794,0.542,1.542,0.698c0.745,0.152,2.045,0.357,3.892,0.615l4.782,0.771
				c4.475,0.718,7.827,2.25,10.064,4.586c2.237,2.34,3.355,5.127,3.355,8.367c0,2.312-0.788,4.434-2.356,6.36
				c-1.569,1.929-3.826,3.462-6.784,4.59s-6.44,1.694-10.448,1.694c-3.855,0-7.211-0.553-10.064-1.658
				c-2.853-1.105-5.037-2.505-6.552-4.199c-1.516-1.701-2.353-3.419-2.509-5.17c-0.05-0.562,0.146-1.055,0.583-1.466
				c0.437-0.41,0.937-0.615,1.502-0.615h9.564c0.357,0,0.655,0.066,0.887,0.192c0.228,0.132,0.496,0.351,0.807,0.658
				c0.616,0.566,1.311,1.013,2.082,1.347c0.771,0.338,2.006,0.503,3.7,0.503c1.592,0,2.942-0.222,4.047-0.655
				c1.105-0.44,1.661-1.019,1.661-1.737c0-0.82-0.404-1.373-1.198-1.658c-0.798-0.277-2.509-0.629-5.13-1.039l-5.55-0.923
				C439.697,113.593,436.692,112.14,434.584,109.948z"/>
		</g>
		<path fill="#282763" d="M242.709,71.017c0,4.405-3.567,7.967-7.969,7.967c-4.395,0-7.962-3.562-7.962-7.967
			c0-4.4,3.567-7.965,7.962-7.965C239.142,63.052,242.709,66.616,242.709,71.017z"/>
	</g>
</g>
</svg>
